<svg xmlns="http://www.w3.org/2000/svg" xmlns:xlink="http://www.w3.org/1999/xlink" width="500" zoomAndPan="magnify" viewBox="0 0 375 374.999991" height="500" preserveAspectRatio="xMidYMid meet" version="1.0"><defs><g/><clipPath id="c594172349"><path d="M 36.128906 249.003906 L 187.5 249.003906 L 187.5 263.769531 L 36.128906 263.769531 Z M 36.128906 249.003906 " clip-rule="nonzero"/></clipPath><clipPath id="45bc34e9c0"><path d="M 193.011719 156.140625 L 343 156.140625 L 343 170.097656 L 193.011719 170.097656 Z M 193.011719 156.140625 " clip-rule="nonzero"/></clipPath></defs><rect x="-37.5" width="450" fill="#ffffff" y="-37.499999" height="449.999989" fill-opacity="1"/><rect x="-37.5" width="450" fill="#0d1117" y="-37.499999" height="449.999989" fill-opacity="1"/><g clip-path="url(#c594172349)"><path fill="#ffffff" d="M 36.128906 249.003906 L 187.484375 249.003906 L 187.484375 263.769531 L 36.128906 263.769531 Z M 36.128906 249.003906 " fill-opacity="1" fill-rule="nonzero"/></g><g clip-path="url(#45bc34e9c0)"><path fill="#ffffff" d="M 193.011719 156.140625 L 342.996094 156.140625 L 342.996094 170.097656 L 193.011719 170.097656 Z M 193.011719 156.140625 " fill-opacity="1" fill-rule="nonzero"/></g><g fill="#ffffff" fill-opacity="1"><g transform="translate(28.414706, 236.71527)"><g><path d="M 14.996094 0 L 43.203125 0 L 43.203125 -75.335938 L 73.550781 -30.886719 L 93.191406 -30.886719 L 123.539062 -75.160156 L 123.539062 0 L 151.746094 0 L 151.746094 -124.96875 L 127.824219 -124.96875 L 83.550781 -60.164062 L 39.097656 -124.96875 L 14.996094 -124.96875 Z M 14.996094 0 "/></g></g></g><g fill="#ffffff" fill-opacity="1"><g transform="translate(198.078229, 214.757536)"><g><path d="M 16.050781 0.683594 C 24.175781 0.683594 29.167969 -3.179688 29.167969 -9.640625 C 29.167969 -15.074219 25.59375 -18.304688 17.078125 -20.308594 C 11.84375 -21.53125 10.03125 -22.855469 10.03125 -24.957031 C 10.03125 -27.210938 12.039062 -28.578125 15.316406 -28.578125 C 18.890625 -28.578125 21.042969 -26.71875 21.042969 -23.636719 L 28.53125 -23.636719 C 28.53125 -30.539062 23.34375 -34.941406 15.21875 -34.941406 C 7.339844 -34.941406 2.445312 -31.074219 2.445312 -24.8125 C 2.445312 -19.234375 6.214844 -15.90625 14.242188 -14.191406 C 19.085938 -13.164062 21.289062 -11.746094 21.289062 -9.347656 C 21.289062 -7.046875 19.234375 -5.726562 16.003906 -5.726562 C 12.234375 -5.726562 9.789062 -7.632812 9.789062 -10.914062 L 2.152344 -10.914062 C 2.152344 -3.816406 7.4375 0.683594 16.050781 0.683594 Z M 16.050781 0.683594 "/></g></g></g><g fill="#ffffff" fill-opacity="1"><g transform="translate(239.576979, 214.757536)"><g><path d="M 4.109375 0 L 11.890625 0 L 11.890625 -34.257812 L 4.109375 -34.257812 Z M 4.109375 0 "/></g></g></g><g fill="#ffffff" fill-opacity="1"><g transform="translate(265.70981, 214.757536)"><g><path d="M 12.332031 0 L 20.113281 0 L 20.113281 -26.964844 L 30.976562 -26.964844 L 30.976562 -34.257812 L 1.46875 -34.257812 L 1.46875 -26.964844 L 12.332031 -26.964844 Z M 12.332031 0 "/></g></g></g><g fill="#ffffff" fill-opacity="1"><g transform="translate(308.285153, 214.757536)"><g><path d="M 4.109375 0 L 27.160156 0 L 27.160156 -6.605469 L 11.84375 -6.605469 L 11.84375 -14.09375 L 25.300781 -14.09375 L 25.300781 -20.601562 L 11.84375 -20.601562 L 11.84375 -27.699219 L 26.621094 -27.699219 L 26.621094 -34.257812 L 4.109375 -34.257812 Z M 4.109375 0 "/></g></g></g></svg>